<svg xmlns="http://www.w3.org/2000/svg" width="72" height="72" viewBox="0 0 72 72">
  <g id="Group_11" data-name="Group 11" transform="translate(-241 -5277)">
    <circle id="Ellipse_9" data-name="Ellipse 9" cx="36" cy="36" r="36" transform="translate(241 5277)" fill="#4f4f50"/>
    <g id="instagram" transform="translate(251.551 5287)">
      <path id="Path_4" data-name="Path 4" d="M50.322,14.7a18.273,18.273,0,0,0-1.162-6.067,12.811,12.811,0,0,0-7.318-7.317A18.321,18.321,0,0,0,35.775.157C33.1.029,32.248,0,25.458,0s-7.64.029-10.307.147A18.279,18.279,0,0,0,9.085,1.309,12.2,12.2,0,0,0,4.649,4.2,12.313,12.313,0,0,0,1.767,8.627,18.323,18.323,0,0,0,.605,14.693C.478,17.37.449,18.22.449,25.01S.478,32.649.6,35.317a18.273,18.273,0,0,0,1.163,6.067A12.809,12.809,0,0,0,9.075,48.7a18.323,18.323,0,0,0,6.067,1.162c2.667.118,3.517.147,10.307.147s7.64-.029,10.307-.147A18.269,18.269,0,0,0,41.822,48.7a12.792,12.792,0,0,0,7.318-7.317A18.335,18.335,0,0,0,50.3,35.317c.117-2.667.147-3.517.147-10.307s-.01-7.64-.127-10.307Zm-4.5,20.418a13.707,13.707,0,0,1-.86,4.64A8.3,8.3,0,0,1,40.21,44.51a13.756,13.756,0,0,1-4.64.859c-2.638.118-3.429.147-10.1.147s-7.474-.029-10.1-.147a13.7,13.7,0,0,1-4.64-.859,7.7,7.7,0,0,1-2.872-1.866,7.775,7.775,0,0,1-1.866-2.872,13.758,13.758,0,0,1-.859-4.64c-.118-2.638-.147-3.429-.147-10.1s.029-7.474.147-10.1a13.7,13.7,0,0,1,.859-4.64A7.6,7.6,0,0,1,7.864,7.415a7.763,7.763,0,0,1,2.872-1.866,13.765,13.765,0,0,1,4.64-.86c2.638-.117,3.429-.147,10.1-.147s7.474.029,10.1.147a13.707,13.707,0,0,1,4.64.86,7.69,7.69,0,0,1,2.872,1.866,7.773,7.773,0,0,1,1.866,2.872,13.763,13.763,0,0,1,.86,4.64c.117,2.638.147,3.429.147,10.1s-.029,7.454-.147,10.092Zm0,0" transform="translate(0)" fill="#e4e4e9"/>
      <path id="Path_5" data-name="Path 5" d="M137.8,124.5a12.847,12.847,0,1,0,12.847,12.847A12.85,12.85,0,0,0,137.8,124.5Zm0,21.18a8.333,8.333,0,1,1,8.333-8.333,8.335,8.335,0,0,1-8.333,8.333Zm0,0" transform="translate(-112.337 -112.337)" fill="#e4e4e9"/>
      <path id="Path_6" data-name="Path 6" d="M368.448,91.6a3,3,0,1,1-3-3,3,3,0,0,1,3,3Zm0,0" transform="translate(-326.636 -79.946)" fill="#e4e4e9"/>
    </g>
  </g>
</svg>
