<svg xmlns="http://www.w3.org/2000/svg" width="72" height="72" viewBox="0 0 72 72">
  <g id="Group_8" data-name="Group 8" transform="translate(-434 -5277)">
    <circle id="Ellipse_8" data-name="Ellipse 8" cx="36" cy="36" r="36" transform="translate(434 5277)" fill="#4f4f50"/>
    <path id="envelope-regular" d="M39.268,64H4.062C1.819,64,0,66.271,0,69.072V99.507c0,2.8,1.819,5.072,4.062,5.072H39.268c2.244,0,4.062-2.271,4.062-5.072V69.072C43.33,66.271,41.511,64,39.268,64Zm0,5.072v4.312c-1.9,1.93-4.923,4.93-11.39,11.253-1.425,1.4-4.248,4.763-6.213,4.724-1.964.04-4.788-3.324-6.213-4.724C8.986,78.315,5.96,75.314,4.062,73.384V69.072ZM4.062,99.507V79.893C6,81.822,8.751,84.528,12.943,88.627c1.85,1.818,5.089,5.832,8.722,5.807,3.615.024,6.813-3.931,8.721-5.807,4.191-4.1,6.942-6.806,8.882-8.734V99.507Z" transform="translate(448 5229)" fill="#e4e4e9"/>
  </g>
</svg>
