<svg xmlns="http://www.w3.org/2000/svg" width="72" height="72" viewBox="0 0 72 72">
  <g id="Group_9" data-name="Group 9" transform="translate(-337 -5277)">
    <circle id="Ellipse_7" data-name="Ellipse 7" cx="36" cy="36" r="36" transform="translate(337 5277)" fill="#4f4f50"/>
    <path id="mobile-alt-solid" d="M28.475,0H5.025A4.867,4.867,0,0,0,0,4.688V45.321A4.867,4.867,0,0,0,5.025,50.01h23.45A4.867,4.867,0,0,0,33.5,45.321V4.688A4.867,4.867,0,0,0,28.475,0ZM16.75,46.884a3.133,3.133,0,1,1,0-6.251,3.133,3.133,0,1,1,0,6.251ZM28.475,36.335a1.22,1.22,0,0,1-1.256,1.172H6.281a1.22,1.22,0,0,1-1.256-1.172V5.861A1.22,1.22,0,0,1,6.281,4.688H27.219a1.22,1.22,0,0,1,1.256,1.172Z" transform="translate(356 5288)" fill="#e4e4e9"/>
  </g>
</svg>
